<svg width="21" height="24" viewBox="0 0 21 24" fill="none" xmlns="http://www.w3.org/2000/svg">
<g clip-path="url(#clip0_91_1009)">
<path d="M-0.128 16.416C-0.213333 16.416 -0.256 16.368 -0.256 16.272C-0.256 16.2507 -0.250667 16.224 -0.24 16.192C-0.24 16.1707 -0.234667 16.144 -0.224 16.112C-0.149333 15.824 0.0426667 15.4027 0.352 14.848C0.672 14.2827 1.04533 13.6693 1.472 13.008C1.04533 12.9013 0.693333 12.7413 0.416 12.528C0.096 12.272 -0.064 11.984 -0.064 11.664C-0.064 11.4187 0.032 11.2107 0.224 11.04C0.266667 10.9973 0.304 10.976 0.336 10.976C0.357333 10.976 0.368 10.992 0.368 11.024C0.368 11.088 0.341333 11.1467 0.288 11.2C0.213333 11.3067 0.176 11.4347 0.176 11.584C0.176 11.712 0.202667 11.84 0.256 11.968C0.32 12.096 0.421333 12.2133 0.56 12.32C0.858667 12.5547 1.216 12.704 1.632 12.768C2.03733 12.16 2.45333 11.5573 2.88 10.96C3.31733 10.352 3.728 9.79733 4.112 9.296C4.50667 8.79467 4.83733 8.39467 5.104 8.096C5.37067 7.78667 5.54133 7.632 5.616 7.632C5.69067 7.632 5.74933 7.67467 5.792 7.76C5.83467 7.83467 5.856 7.904 5.856 7.968C5.856 7.968 5.744 8.112 5.52 8.4C5.296 8.67733 5.00267 9.05067 4.64 9.52C4.27733 9.98933 3.88267 10.512 3.456 11.088C3.02933 11.664 2.608 12.2507 2.192 12.848C2.75733 12.88 3.36533 12.832 4.016 12.704C4.66667 12.576 5.30667 12.4053 5.936 12.192C6.576 11.9787 7.15733 11.7493 7.68 11.504C8.21333 11.2587 8.63467 11.0347 8.944 10.832C9.59467 10.3947 10.0693 9.94667 10.368 9.488C10.6773 9.01867 10.832 8.58133 10.832 8.176C10.832 7.65333 10.5973 7.22133 10.128 6.88C9.66933 6.53867 9.008 6.368 8.144 6.368C7.89867 6.368 7.632 6.384 7.344 6.416C6.88533 6.46933 6.368 6.56 5.792 6.688C5.216 6.816 4.64 6.976 4.064 7.168C3.488 7.34933 2.96 7.54667 2.48 7.76C2 7.97333 1.62133 8.19733 1.344 8.432C1.16267 8.57067 1.104 8.69333 1.168 8.8C1.18933 8.832 1.2 8.864 1.2 8.896C1.2 8.91733 1.184 8.928 1.152 8.928C1.12 8.91733 1.088 8.90133 1.056 8.88C0.885333 8.77333 0.757333 8.63467 0.672 8.464C0.586667 8.29333 0.544 8.13867 0.544 8C0.544 7.94667 0.549333 7.89867 0.56 7.856C0.581333 7.81333 0.597333 7.776 0.608 7.744C0.821333 7.44533 1.17867 7.16267 1.68 6.896C2.192 6.61867 2.784 6.368 3.456 6.144C4.13867 5.92 4.848 5.73333 5.584 5.584C6.32 5.424 7.01867 5.312 7.68 5.248C7.808 5.23733 7.93067 5.232 8.048 5.232C8.176 5.22133 8.29333 5.216 8.4 5.216C9.50933 5.216 10.32 5.45067 10.832 5.92C11.3547 6.37867 11.616 6.93867 11.616 7.6C11.616 8.208 11.3973 8.84267 10.96 9.504C10.5333 10.1653 9.90933 10.736 9.088 11.216C8.75733 11.408 8.34133 11.616 7.84 11.84C7.33867 12.0533 6.78933 12.2613 6.192 12.464C5.59467 12.656 4.98667 12.816 4.368 12.944C3.74933 13.072 3.15733 13.136 2.592 13.136C2.48533 13.136 2.384 13.136 2.288 13.136C2.192 13.1253 2.096 13.1147 2 13.104C1.59467 13.6907 1.22667 14.256 0.896 14.8C0.576 15.3333 0.341333 15.7867 0.192 16.16C0.170667 16.2347 0.122667 16.2933 0.048 16.336C-0.016 16.3893 -0.0746667 16.416 -0.128 16.416ZM20.097 16.752C20.0223 16.752 20.0117 16.704 20.065 16.608C20.129 16.48 20.161 16.3627 20.161 16.256C20.161 16.032 20.0277 15.856 19.761 15.728C19.4943 15.5893 19.1263 15.4933 18.657 15.44C18.1983 15.3867 17.681 15.36 17.105 15.36C16.3903 15.36 15.633 15.392 14.833 15.456C14.033 15.52 13.2543 15.5947 12.497 15.68C11.7503 15.7653 11.089 15.8507 10.513 15.936C9.94767 16.0213 9.537 16.0907 9.281 16.144C9.11033 16.176 8.93433 16.1227 8.753 15.984C8.58233 15.8347 8.497 15.6693 8.497 15.488C8.497 15.3173 8.577 15.1733 8.737 15.056C8.833 14.992 8.98767 14.896 9.201 14.768C9.425 14.64 9.617 14.5387 9.777 14.464L9.825 14.432C10.3583 13.8987 10.961 13.3333 11.633 12.736C12.305 12.1387 13.0143 11.5467 13.761 10.96C14.5183 10.3627 15.281 9.80267 16.049 9.28C16.8277 8.74667 17.585 8.28267 18.321 7.888C19.057 7.48267 19.745 7.17867 20.385 6.976C20.1823 6.79467 19.8357 6.66133 19.345 6.576C18.8543 6.49067 18.305 6.448 17.697 6.448C17.0463 6.448 16.3743 6.496 15.681 6.592C14.9877 6.67733 14.3423 6.80533 13.745 6.976C13.1477 7.136 12.6623 7.33333 12.289 7.568C11.9157 7.80267 11.729 8.064 11.729 8.352C11.729 8.52267 11.8197 8.71467 12.001 8.928C12.0117 8.93867 12.017 8.95467 12.017 8.976C12.017 8.98667 12.0063 8.992 11.985 8.992C11.9103 8.992 11.8517 8.97067 11.809 8.928C11.5957 8.72533 11.489 8.48533 11.489 8.208C11.489 7.94133 11.5797 7.664 11.761 7.376C11.953 7.088 12.209 6.816 12.529 6.56C12.8597 6.304 13.2383 6.096 13.665 5.936C14.177 5.744 14.7477 5.60533 15.377 5.52C16.0063 5.424 16.6303 5.376 17.249 5.376C17.9637 5.376 18.6463 5.43467 19.297 5.552C19.553 5.59467 19.8143 5.67467 20.081 5.792C20.3583 5.89867 20.5823 6.05333 20.753 6.256C20.9343 6.448 21.0143 6.69867 20.993 7.008C21.025 7.04 21.041 7.07733 21.041 7.12C21.041 7.17333 21.0143 7.22133 20.961 7.264C20.9503 7.33867 20.9343 7.41333 20.913 7.488C20.8917 7.56267 20.865 7.64267 20.833 7.728C20.801 7.81333 20.769 7.85067 20.737 7.84C20.705 7.81867 20.705 7.78133 20.737 7.728C20.7797 7.6 20.7957 7.48267 20.785 7.376L20.737 7.408C19.713 7.86667 18.7103 8.38933 17.729 8.976C16.7477 9.56267 15.8143 10.1707 14.929 10.8C14.0437 11.4293 13.2277 12.0427 12.481 12.64C11.745 13.2267 11.105 13.76 10.561 14.24C10.849 14.144 11.281 14.0693 11.857 14.016C12.4437 13.9627 13.0837 13.936 13.777 13.936C14.3637 13.936 14.961 13.9627 15.569 14.016C16.1877 14.0587 16.7797 14.1333 17.345 14.24C17.921 14.336 18.433 14.4693 18.881 14.64C19.329 14.8 19.6863 15.0027 19.953 15.248C20.2197 15.4827 20.353 15.76 20.353 16.08C20.353 16.2613 20.3157 16.432 20.241 16.592C20.1983 16.6987 20.1503 16.752 20.097 16.752Z" fill="white"/>
</g>
<defs>
<clipPath id="clip0_91_1009">
<rect width="21" height="24" fill="white"/>
</clipPath>
</defs>
</svg>
